<svg width="29" height="18" viewBox="0 0 29 18" fill="none" xmlns="http://www.w3.org/2000/svg">
<path d="M14.3559 18C22.8412 18 28.7012 11.1424 28.7012 9.00003C28.7012 6.84718 22.8307 0 14.3559 0C5.98599 0 0 6.84718 0 9.00003C0 11.1424 5.97548 18 14.3559 18ZM14.3559 16.3407C7.44575 16.3407 1.8378 10.4808 1.8378 9.00003C1.8378 7.75029 7.44575 1.65929 14.3559 1.65929C21.2449 1.65929 26.8634 7.75029 26.8634 9.00003C26.8634 10.4808 21.2449 16.3407 14.3559 16.3407ZM14.3559 14.881C17.6219 14.881 20.2474 12.203 20.2474 9.00003C20.2474 5.71297 17.6219 3.11905 14.3559 3.11905C11.0688 3.11905 8.43287 5.71297 8.45388 9.00003C8.46439 12.203 11.0688 14.881 14.3559 14.881ZM14.3559 10.9533C13.2637 10.9533 12.3815 10.0712 12.3815 9.00003C12.3815 7.91835 13.2637 7.04671 14.3559 7.04671C15.4375 7.04671 16.3197 7.91835 16.3197 9.00003C16.3197 10.0712 15.4375 10.9533 14.3559 10.9533Z" fill="black"/>
</svg>
