<svg width="22" height="18" viewBox="0 0 22 18" fill="none" xmlns="http://www.w3.org/2000/svg">
<path d="M15.2214 8.99494C15.2214 9.2079 15.1504 9.38028 14.9476 9.58312L11.6417 13.0107C11.4896 13.1628 11.3273 13.2541 11.1042 13.2541C10.6885 13.2541 10.3944 12.9499 10.3944 12.5239C10.3944 12.3211 10.4755 12.1082 10.6378 11.9662L12.2704 10.4248L12.9904 9.7352L11.4794 9.8062H0.78085C0.354967 9.8062 0 9.43099 0 8.99494C0 8.55889 0.354967 8.1938 0.78085 8.1938H11.4794L12.9904 8.25467L12.2704 7.56507L10.6378 6.03379C10.4755 5.89183 10.3944 5.67887 10.3944 5.4862C10.3944 5.06027 10.6885 4.74593 11.1042 4.74593C11.3273 4.74593 11.4896 4.82706 11.6417 4.97915L14.9476 8.40676C15.1504 8.6096 15.2214 8.7921 15.2214 8.99494ZM21.884 14.8158C21.884 16.9251 20.8394 18 18.7403 18H8.27497C6.18592 18 5.13127 16.9251 5.13127 14.8158V11.8851H6.76397V14.7853C6.76397 15.7994 7.31157 16.3673 8.36622 16.3673H18.6591C19.7138 16.3673 20.2513 15.7994 20.2513 14.7853V3.20453C20.2513 2.21071 19.7138 1.63266 18.6591 1.63266H8.36622C7.31157 1.63266 6.76397 2.21071 6.76397 3.20453V6.10479H5.13127V3.18423C5.13127 1.05465 6.18592 0 8.27497 0H18.7403C20.8293 0 21.884 1.05465 21.884 3.18423V14.8158Z" fill="white"/>
</svg>
