<svg width="15" height="12" viewBox="0 0 15 12" fill="none" xmlns="http://www.w3.org/2000/svg">
<path d="M11.9797 11.0366H13.7585C14.5822 11.0366 15 10.6427 15 9.86076V1.18187C15 0.399938 14.5822 0 13.7585 0H11.9797C11.162 0 10.7382 0.399938 10.7382 1.18187V9.86076C10.7382 10.6427 11.162 11.0366 11.9797 11.0366ZM6.60766 11.0366H8.38642C9.21013 11.0366 9.63394 10.6427 9.63394 9.86076V2.92481C9.63394 2.14286 9.21013 1.74295 8.38642 1.74295H6.60766C5.78992 1.74295 5.37209 2.14286 5.37209 2.92481V9.86076C5.37209 10.6427 5.78992 11.0366 6.60766 11.0366ZM1.24154 11.0366H3.0203C3.84402 11.0366 4.26185 10.6427 4.26185 9.86076V4.66179C4.26185 3.87983 3.84402 3.47992 3.0203 3.47992H1.24154C0.423804 3.47992 0 3.87983 0 4.66179V9.86076C0 10.6427 0.423804 11.0366 1.24154 11.0366Z" fill="white"/>
</svg>
