<svg width="18" height="14" viewBox="0 0 18 14" fill="none" xmlns="http://www.w3.org/2000/svg">
<path d="M1.17765 5.47353C1.33221 5.62805 1.55992 5.61993 1.70628 5.46541C3.62569 3.42399 6.16318 2.35046 9.0016 2.35046C11.8563 2.35046 14.4019 3.43211 16.3131 5.47353C16.4514 5.61177 16.6711 5.61177 16.8175 5.45725L17.8992 4.37556C18.0292 4.23731 18.0292 4.05839 17.9235 3.92823C16.0854 1.66727 12.6289 0 9.0016 0C5.37429 0 1.91775 1.66727 0.0796862 3.92823C-0.034167 4.05839 -0.0260123 4.23731 0.104116 4.37556L1.17765 5.47353ZM4.43085 8.73484C4.59353 8.90564 4.80499 8.88937 4.95952 8.71045C5.90293 7.66127 7.43191 6.90493 9.0016 6.92121C10.5875 6.90493 12.1084 7.6857 13.06 8.73484C13.2145 8.89748 13.4178 8.89748 13.5724 8.72672L14.7842 7.53118C14.9143 7.40101 14.9305 7.23025 14.8086 7.09197C13.6293 5.63617 11.4415 4.56263 9.0016 4.56263C6.56169 4.56263 4.37394 5.64432 3.19464 7.09197C3.07266 7.23025 3.0889 7.39289 3.21903 7.53118L4.43085 8.73484ZM9.0016 13.0047C9.1724 13.0047 9.32692 12.9152 9.62784 12.6224L11.5309 10.7925C11.6529 10.6786 11.6773 10.4997 11.5716 10.3614C11.0593 9.70268 10.0996 9.13335 9.0016 9.13335C7.87924 9.13335 6.90328 9.72708 6.39904 10.4102C6.32582 10.5241 6.35025 10.6786 6.47223 10.7925L8.37536 12.6224C8.67628 12.9152 8.8308 13.0047 9.0016 13.0047Z" fill="white"/>
</svg>
