<svg width="20" height="10" viewBox="0 0 20 10" fill="none" xmlns="http://www.w3.org/2000/svg">
<path d="M3.37975 10H14.5886C15.6709 10 16.5823 9.89875 17.2278 9.25318C17.8735 8.60761 17.962 7.70886 17.962 6.62661V3.37975C17.962 2.29746 17.8735 1.39239 17.2278 0.753179C16.576 0.107607 15.6709 0 14.5886 0H3.36075C2.29746 0 1.38607 0.107607 0.7405 0.753179C0.0949286 1.39871 0 2.29746 0 3.36075V6.62661C0 7.70886 0.0949286 8.61393 0.7405 9.25318C1.38607 9.89875 2.29746 10 3.37975 10ZM3.20254 8.981C2.55064 8.981 1.86711 8.89239 1.48736 8.51268C1.10125 8.12657 1.019 7.45568 1.019 6.80379V3.2215C1.019 2.55696 1.10125 1.87343 1.481 1.49368C1.86711 1.10761 2.55696 1.019 3.22154 1.019H14.7658C15.4114 1.019 16.1013 1.11393 16.4811 1.49368C16.8671 1.87975 16.943 2.55064 16.943 3.20254V6.80379C16.943 7.45568 16.8607 8.12657 16.4811 8.51268C16.1013 8.89875 15.4114 8.981 14.7658 8.981H3.20254ZM3.07593 8.12025H14.8924C15.3608 8.12025 15.6203 8.05696 15.8227 7.86075C16.0253 7.65822 16.0822 7.39243 16.0822 6.93039V3.07596C16.0822 2.60761 16.019 2.34811 15.8227 2.14557C15.6203 1.94304 15.3608 1.88607 14.8924 1.88607H3.07593C2.60761 1.88607 2.34811 1.94304 2.14557 2.14557C1.94304 2.34811 1.88607 2.60761 1.88607 3.07596V6.93039C1.88607 7.39243 1.94304 7.65822 2.14557 7.86075C2.34811 8.05696 2.60761 8.12025 3.07593 8.12025ZM18.8291 6.60125C19.3291 6.56961 20 5.93039 20 4.96204C20 4 19.3291 3.36075 18.8291 3.32911V6.60125Z" fill="white"/>
</svg>
